<?xml version="1.0"?>
<svg xmlns="http://www.w3.org/2000/svg" id="outline" viewBox="0 0 512 512" width="512" height="512"><path d="M430.11133,16H401.88867A49.61734,49.61734,0,0,0,357.2666,43.57715,50.14911,50.14911,0,0,0,352,65.88867V112c0,.24707.01172.49512.03418.74121l20.93262,225.0315A87.91462,87.91462,0,0,0,304,321.46191V248a48.05375,48.05375,0,0,0-48-48H173.24512a48.21618,48.21618,0,0,0-45.7583,33.54419l-3.30909.66186a63.77747,63.77747,0,0,0-46.47,38.02686,24.0298,24.0298,0,0,0-22.70288-.6792l-9.7373,4.86914A23.86746,23.86746,0,0,0,32,297.88867v21.45508A249.25683,249.25683,0,0,0,58.18262,430.25293L77.78906,469.4668A47.73852,47.73852,0,0,0,120.72168,496H256a48.02354,48.02354,0,0,0,26.86328-8.23218A87.89481,87.89481,0,0,0,360,486.37231V488a8.00039,8.00039,0,0,0,8,8h96a8.00039,8.00039,0,0,0,8-8V456a8.00039,8.00039,0,0,0-8-8H448.77881l31.187-335.25879c.02246-.24609.03418-.49414.03418-.74121V65.88867a50.14911,50.14911,0,0,0-5.2666-22.31152A49.61734,49.61734,0,0,0,430.11133,16ZM376.78979,452.18066l-16.5476-20.68359a37.61276,37.61276,0,0,1,0-46.99316l16.5476-20.68457a71.77025,71.77025,0,0,1,0,88.36132ZM288,248v78.02417q-2.37012.92835-4.67114,1.99023l-5.26929-5.26928A47.68439,47.68439,0,0,1,264,288.80371v-71.791A32.05794,32.05794,0,0,1,288,248ZM263.21021,452.18066a71.77025,71.77025,0,0,1,0-88.36132l16.5476,20.68359a37.61276,37.61276,0,0,1,0,46.99316ZM92.16113,279.13672a47.81637,47.81637,0,0,1,32.78711-28.69043l-4.71484,66.00683-8.23682,8.23609L89.42065,285.988ZM200,480H120.72168a31.82653,31.82653,0,0,1-28.62207-17.68945v.001L72.49316,423.09668A233.17365,233.17365,0,0,1,48,319.34375V297.88867a7.95569,7.95569,0,0,1,4.42285-7.15527l9.73828-4.86914a8.01613,8.01613,0,0,1,10.48731,3.125l36.43261,62.45605a87.78119,87.78119,0,0,0,36.65723,34.36817L160.2002,393.044A71.60683,71.60683,0,0,1,200,457.44238Zm56,0H216V457.44238a87.518,87.518,0,0,0-48.64453-78.709l-14.46192-7.23047a71.82785,71.82785,0,0,1-29.99218-28.12012L120.3335,338.981l13.32373-13.32373a8.00123,8.00123,0,0,0,2.32226-5.08692l5.34668-74.84961A32.13573,32.13573,0,0,1,168,216.4436V312h16V216h24v96h16V216h24v72.80371a63.58415,63.58415,0,0,0,18.74512,45.25586l2.2605,2.2605a87.91347,87.91347,0,0,0-2.1438,141.77612A32.01637,32.01637,0,0,1,256,480Zm18.46533-16.2749L292.252,441.49121a53.61361,53.61361,0,0,0,0-66.9834L274.46533,352.2749a71.837,71.837,0,0,1,91.06934,0l-17.78662,22.23389a53.61361,53.61361,0,0,0,0,66.9834l17.78662,22.23291a71.837,71.837,0,0,1-91.06934,0ZM456,480H376v-4.16748A88.77479,88.77479,0,0,0,387.83252,464H456Zm8-368.37207L432.70947,448H398.37231a87.855,87.855,0,0,0-7.67163-92.33618L368,111.62793V65.88867a34.06264,34.06264,0,0,1,3.57715-15.15527A33.70361,33.70361,0,0,1,401.88867,32h28.22266a33.70361,33.70361,0,0,1,30.31152,18.7334A34.06264,34.06264,0,0,1,464,65.88867Z"/></svg>
