<svg height="512" viewBox="0 0 60 60" width="512" xmlns="http://www.w3.org/2000/svg"><path id="Shape" d="m55.821 46.394c2.4896727-.7930212 4.1798759-3.1060798 4.179-5.719 0-1.507.006-3.41-.014-3.529-.466-2.8-2.626-7.718-11.836-9.134-2.9369766-.3738259-5.8404085-.9756427-8.684-1.8.1299001-.4939816-.137333-1.0057002-.6169469-1.1813772-.4796139-.1756771-1.0141492.0423629-1.2340531.5033772l-.044.091c-1.047126-.3778211-2.0524539-.8627243-3-1.447.3239639-.3993816.2877966-.9803982-.0831961-1.3365199-.3709927-.3561216-.9530022-.3685026-1.3388039-.0284801l-.218.187c-.8651408-.7203685-1.642188-1.5403798-2.315-2.443l.542-.214c.3394466-.1260619.5842276-.4257756.6399474-.7835617s-.0863275-.7177425-.3713638-.9410582-.6685263-.2750988-1.0025836-.1353801l-.915.362c-.5447834-.9919347-.9909209-2.0349317-1.332-3.114l.964-.16c.5444092-.0908048.9123105-.6055085.822-1.15-.0405495-.2631572-.1855986-.498808-.4022784-.6535524s-.4866457-.2154814-.7487216-.1684476l-1.149.191c-.2742158-1.2967347-.4371416-2.6145268-.487-3.939l.937-.107c.3643309-.02881362.6839249-.25408412.8335329-.58752774s.105398-.72194411-.1153041-1.01324772c-.2207021-.2913036-.5827393-.43900679-.9442288-.38522454l-.7.08c.0534524-1.46518606.1950417-2.92582686.424-4.374.1355704-.86598492-.1143753-1.74794628-.6841339-2.41404267-.5697585-.6660964-1.4023336-1.04969434-2.2788661-1.04995733h-17.338c-.856108-.00003874-1.6714491.36568176-2.24073784 1.00508089s-.83828532 1.49155723-.73926216 2.34191911c.7021482 6.49862296.2621852 13.0699779-1.3 19.417-.8906288 3.3911244-1.56498611 6.8353902-2.019 10.312-.011.293-.011 1.491-.011 9.924 0 1.6568542 1.34314575 3 3 3h2v6h-3.612c-.64348444-.0009059-1.24810043.3078577-1.624645.8296692-.37654456.5218115-.47901866 1.1929259-.275355 1.8033308l1.333 4c.27272285.8173894 1.03831458 1.3682125 1.9 1.367h48.279c6.423 0 8.805-3.714 7.1-9.453-.2291202-.7749764-.9021174-1.3359116-1.7056904-1.4216727s-1.5797946.3205065-1.9673096 1.0296727c-.6692907 1.246282-2.0181268 1.9724573-3.427 1.845h-10v-4.028c4.149.097 9.954-.333 13.821-1.578zm-49.504-43.272c-.03495979-.28441483.05377279-.5701616.24368641-.78474678.18991363-.21458519.46275824-.33738788.74931359-.33725322h17.338c.2916388-.00184938.5690109.12602757.757.349.592.689-.09.956-.216 5.716l-.61.07c-.5972335-1.87185859-2.4905462-3.01004155-4.4238376-2.65943209s-3.3063486 2.08116058-3.2082299 4.04353547c.0981187 1.96237492 1.6369514 3.54733152 3.5955739 3.70334522 1.9586226.1560138 3.7289579-1.1653515 4.1364936-3.0874486l.543-.062c.0711532 1.3559347.2473481 2.7043102.527 4.033l-3.449.574c-.5303114.1047182-.881414.6119043-.7927233 1.1451304.0886908.5332261.5850668.8994524 1.1207233.8268696l3.62-.6c.3664174 1.2142753.8475875 2.3909153 1.437 3.514l-3.4 1.343c-.5098879.2053975-.7583893.7838418-.5563688 1.2950772.2020204.5112354.7788084.7635573 1.2913688.5649228l3.709-1.469c.7619835 1.1144819 1.6614057 2.1284737 2.677 3.018l-1.938 1.682c-.3997827.365431-.4359592.9827238-.0815989 1.3923514.3543604.4096276.9704329.4626733 1.3895989.1196486l2.243-1.942c1.1494803.7648978 2.3849756 1.3918756 3.681 1.868l-1.193 2.482c-.174711.3240514-.1572421.7178911.0454732 1.0252016s.5578887.4783857.9245496.4453247c.3666609-.0330609.6855035-.2649106.8299772-.6035263l1.315-2.736c3.020771.8785931 6.103999 1.5261278 9.223 1.937 7.505 1.154 9.667 4.656 10.152 7.418v1.176c-2.6986207.8747216-5.4760907 1.4842712-8.293 1.82.193 1.321.226 1.313-.1.015-6.4132679 1.0390123-12.9745531.6949915-19.244-1.009-3.6704571-.876393-7.2833252-1.9784881-10.818-3.3-2.082-8.782-10.302-11.208-14.815-11.868 1.81258469-6.8836057 2.35144297-14.0405926 1.59-21.118zm15.12 7.378c.094 0 .111-.007.989-.107-.489271.7144301-1.3936226 1.0168317-2.2142221.7404027-.8205994-.2764289-1.3576507-1.0643849-1.3149208-1.92923782s.6548373-1.59603227 1.4986888-1.79022554c.8438515-.19419328 1.7139899.19588083 2.1304541.95506066l-1.2.138c-.5246692.06235128-.9102969.52210624-.8803877 1.04962007s.4650333.94073343.9933877.94337993zm-17.169 15.693c3.862.537 10.98 2.5 13.131 9.588l-14.399-1.898c.21851387-2.5928478.64251231-5.1642579 1.268-7.69zm-1.268 16.807v-7.1l15.584 2.05c.658.1-.18-.028 3.335 1.123 13.503 4.427 20.423 4.412 28.081 3.308 2.7083991-.3301309 5.3844093-.8864065 8-1.663-.0182775 1.7281694-1.1443997 3.2491603-2.792 3.771-3.1903054.891657-6.4801695 1.3781483-9.792 1.448-3.7441675.21529-7.5002242-.0794082-11.165-.876-8.827-1.937-14.832-4.128-15.159-4.128-.5902704.0076152-1.0707187.4770642-1.092 1.067v1c0 .5522847-.4477153 1-1 1h-13c-.55228475 0-1-.4477153-1-1zm12 9v-6h2c1.540696.0000194 2.8309304-1.1670269 2.985-2.7 2.415.774 7.6 2.286 13.015 3.528v5.172zm-7-6h5v6h-5zm49.183 5.116c1.417 4.765-.424 6.884-5.183 6.884h-48.279l-1.333-4h49.612c2.1439235.1390727 4.1709856-.9888545 5.183-2.884zm-17.183-3.167v4.051h-5v-4.739c.341.067 3.235.566 5 .688z"/></svg>