<svg height="512" viewBox="0 0 192 192" width="512" xmlns="http://www.w3.org/2000/svg"><path d="m182.889 14.606a8 8 0 0 0 -5.489-5.494 175.022 175.022 0 0 0 -48.377-5.255c-36.323.982-67.3 13.283-89.592 35.575s-34.592 53.268-35.574 89.586a175.334 175.334 0 0 0 5.254 48.376 8 8 0 0 0 5.494 5.494 173.226 173.226 0 0 0 43.589 5.319q2.355 0 4.788-.064c36.317-.982 67.295-13.283 89.587-35.575s34.592-53.268 35.574-89.586a175.334 175.334 0 0 0 -5.254-48.376zm-14.326 8.83a168.289 168.289 0 0 1 3.163 46.464l-49.665-49.662c2.278-.169 4.578-.3 6.919-.373a169.189 169.189 0 0 1 39.583 3.571zm-117.818 27.309c13.846-13.845 31.133-23.074 51.566-27.629l27.63 27.629-12.058 12.055-2.725-13.627-15.689 3.141 3.3 16.517-16.516-3.3-3.136 15.686 13.626 2.726-12.8 12.8-2.725-13.625-15.69 3.137 3.3 16.517-16.518-3.3-3.138 15.689 13.628 2.723-12.055 12.057-27.574-27.574c3.98-17.778 12.129-36.178 27.574-51.622zm-27.308 117.819a168.289 168.289 0 0 1 -3.163-46.464l49.665 49.664c-2.278.169-4.578.3-6.919.373a169.078 169.078 0 0 1 -39.583-3.573zm117.818-27.309c-13.846 13.846-31.133 23.074-51.566 27.629l-27.63-27.629 12.058-12.055 2.725 13.627 15.689-3.138-3.3-16.517 16.516 3.3 3.139-15.689-13.626-2.726 12.8-12.8 2.725 13.625 15.69-3.137-3.3-16.517 16.518 3.3 3.138-15.689-13.631-2.723 12.057-12.057 27.574 27.574c-3.982 17.778-12.131 36.178-27.576 51.622z"/></svg>