<svg id="Capa_1" enable-background="new 0 0 512 512" height="512" viewBox="0 0 512 512" width="512" xmlns="http://www.w3.org/2000/svg"><path d="m437.02 74.98c-48.353-48.351-112.64-74.98-181.02-74.98s-132.667 26.629-181.02 74.98c-48.351 48.353-74.98 112.64-74.98 181.02s26.629 132.667 74.98 181.02c48.353 48.351 112.64 74.98 181.02 74.98s132.667-26.629 181.02-74.98c48.351-48.353 74.98-112.64 74.98-181.02s-26.629-132.667-74.98-181.02zm44.98 181.02c0 33.741-7.35 66.35-21.282 96.008-16.445-2.049-32.583-5.415-48.331-10.102 32.018-61.521 46.882-125.085 44.44-189.767 16.446 31.712 25.173 67.113 25.173 103.861zm-61.107-154.535c14.993 78.579 2.512 155.984-37.099 230.306-8.569-3.535-17.005-7.464-25.284-11.812-7.101-3.729-14.011-7.733-20.741-11.978 18.854-36.912 31.735-80.567 37.411-127.234 4.696-38.605 4.474-78.584-.533-117.179 14.761 9.14 28.575 20.042 41.159 32.626 1.731 1.731 3.419 3.494 5.087 5.271zm-34.923 339.492c-16.42 11.591-34.204 20.852-52.935 27.626-40.617-9-79.998-26.421-117.079-51.838-32.51-22.283-61.806-49.662-87.257-81.468 8.579-7.334 17.486-14.151 26.727-20.394 5.391-3.641 10.906-7.087 16.525-10.359 49.868 60.93 130.539 112.123 214.019 136.433zm-247.336-150.933c-30.028 20.284-56.884 45.843-80.083 76.116-11.688-20.88-19.942-43.484-24.471-67.108 30.791-29.057 68.866-54.76 110.566-74.562 38.99-18.515 78.521-30.525 115.445-35.172-3.31 18.233-8.338 36.258-15.119 53.87-38.553 9.466-74.292 25.209-106.338 46.856zm-108.634-34.024c0-18.103 2.13-35.876 6.241-53.047 55.316-53.374 137.348-88.011 227.076-96.162 1.761 17.263 1.995 34.607.704 51.868-42.293 4.301-87.735 17.577-132.243 38.712-37.311 17.718-71.967 39.936-101.681 65.034-.06-2.131-.097-4.265-.097-6.405zm247.236-225.01c22.362 2.071 44.034 7.401 64.461 15.766 7.65 42.348 8.946 87.266 3.703 130.37-5.059 41.592-16.198 80.42-32.418 113.396-14.299-11.201-27.561-23.697-39.694-37.432 27.367-71.662 28.672-149.437 3.948-222.1zm-181.042 65.204c40.106-40.106 92.63-63.278 148.902-65.933 5.852 15.368 10.403 31.02 13.653 46.825-74.967 7.115-145.091 31.662-200.697 69.681 10.149-18.329 22.918-35.349 38.142-50.573zm0 319.612c-7.269-7.269-13.968-14.955-20.103-22.988 9.535-13.246 19.789-25.554 30.71-36.89 26.943 33.307 57.891 62.05 92.194 85.563 23.878 16.367 48.688 29.675 74.179 39.867-5.685.424-11.413.642-17.174.642-60.367 0-117.12-23.508-159.806-66.194zm319.612 0c-.528.528-1.068 1.04-1.601 1.563-82.534-19.29-164.429-67.856-214.914-126.908 16.35-7.36 33.483-13.293 51.29-17.76 26.633 30.216 58.204 55.03 93.98 73.819 31.669 16.633 65.355 27.869 100.413 33.545-8.396 12.73-18.136 24.709-29.168 35.741z"/></svg>